<?xml version="1.0" encoding="UTF-8" standalone="no"?>
<svg xmlns="http://www.w3.org/2000/svg" viewBox="0 0 512 512" height="512" width="512" id="svg2" version="1.1">
    <defs id="defs6"/>
    <g id="layer3">
        <path id="path70" style="fill:#000000;stroke-width:2.16949153"
              d="M 63.877736,448.96271 0.43389831,385.49153 V 194.04746 2.6033898 H 223.89153 447.34915 V 34.061017 65.518644 H 432.16271 416.97627 V 49.247458 32.976271 H 223.89153 30.80678 V 194.60339 356.23051 h 64 64 v 62.96604 62.96604 l 126.73553,-0.59316 c 69.70455,-0.32625 127.25138,-1.10948 127.88183,-1.74052 0.63046,-0.63106 1.83888,-28.69885 2.6854,-62.37288 l 1.5391,-61.22552 h 14.85026 14.85025 v 78.10169 78.1017 H 287.33535 127.32157 Z m 64.159794,-28.83486 0.68838,-35.69395 -23.46804,0.0152 c -26.671658,0.0178 -52.756175,2.09439 -52.756175,4.20023 0,0.78017 15.604567,17.44664 34.676816,37.03658 27.956799,28.71567 35.209139,35.0869 37.423729,32.87702 1.93266,-1.92857 2.95096,-13.32164 3.43529,-38.43506 z"/>
        <path id="path72" style="fill:#000000;stroke-width:2.16949153"
              d="m 63.349153,146.87458 v -46.64407 h 127.999997 128 v 46.64407 46.64406 h -128 H 63.349153 Z M 288.97627,145.78983 V 128.4339 H 191.34915 93.722034 v 17.35593 17.35593 h 97.627116 97.62712 z"/>
        <path id="path74" style="fill:#000000;stroke-width:2.16949153"
              d="m 63.349153,274.87458 v -46.64407 h 127.999997 128 v 46.64407 46.64406 h -128 H 63.349153 Z M 288.97627,273.78983 V 256.4339 H 191.34915 93.722034 v 17.35593 17.35593 h 97.627116 97.62712 z"/>
        <path id="path76" style="fill:#000000;stroke-width:2.16949153"
              d="m 375.52545,169.85858 -22.54918,-21.49058 8.53612,-8.84158 8.53612,-8.84158 13.51339,12.97622 c 7.43237,7.13693 14.17401,12.97623 14.98144,12.97623 0.80743,0 14.73939,-12.59315 30.95991,-27.98479 l 29.49185,-27.98478 8.27872,6.65297 c 4.5533,3.65913 8.26472,7.70991 8.24761,9.00173 -0.0285,2.15492 -74.3275,75.02673 -76.49608,75.02673 -0.5229,0 -11.09786,-9.67076 -23.4999,-21.49057 z"/>
        <path id="path78" style="fill:#000000;stroke-width:2.16949153"
              d="m 415.86941,310.64891 c -8.27637,-8.34029 -15.78804,-15.16416 -16.69259,-15.16416 -0.90455,0 -8.55192,6.51597 -16.99415,14.47994 l -15.3495,14.47995 -6.88042,-6.88042 -6.88042,-6.88042 15.66468,-15.76992 15.66468,-15.76993 -15.6825,-15.6825 -15.6825,-15.6825 7.01433,-7.01433 7.01433,-7.01432 15.78779,15.68242 15.78779,15.68242 16.14019,-16.24863 16.1402,-16.24864 7.1587,6.93849 7.15871,6.93849 -12.63337,13.10512 c -20.68674,21.45921 -20.44771,18.42873 -2.8824,36.54391 l 15.40925,15.89162 -7.10742,6.88878 -7.10741,6.88879 z"/>
    </g>
</svg>
